<svg xmlns="http://www.w3.org/2000/svg" xlink="http://www.w3.org/1999/xlink" width="0" height="0" style="display:none;"><symbol viewBox="0 0 24 24" id="moon-fill"><path fill="none" d="M0 0h24v24H0z"/><path d="M11.38 2.019a7.5 7.5 0 1 0 10.6 10.6C21.662 17.854 17.316 22 12.001 22 6.477 22 2 17.523 2 12c0-5.315 4.146-9.661 9.38-9.981z"/></symbol><symbol viewBox="0 0 24 24" id="apple-fill"><path fill="none" d="M0 0h24v24H0z"/><path d="M11.624 7.222c-.876 0-2.232-.996-3.66-.96-1.884.024-3.612 1.092-4.584 2.784-1.956 3.396-.504 8.412 1.404 11.172.936 1.344 2.04 2.856 3.504 2.808 1.404-.06 1.932-.912 3.636-.912 1.692 0 2.172.912 3.66.876 1.512-.024 2.472-1.368 3.396-2.724 1.068-1.56 1.512-3.072 1.536-3.156-.036-.012-2.94-1.128-2.976-4.488-.024-2.808 2.292-4.152 2.4-4.212-1.32-1.932-3.348-2.148-4.056-2.196-1.848-.144-3.396 1.008-4.26 1.008zm3.12-2.832c.78-.936 1.296-2.244 1.152-3.54-1.116.048-2.46.744-3.264 1.68-.72.828-1.344 2.16-1.176 3.432 1.236.096 2.508-.636 3.288-1.572z"/></symbol><symbol viewBox="0 0 24 24" id="discord-fill"><path fill="none" d="M0 0h24v24H0z"/><path d="M10.076 11c.6 0 1.086.45 1.075 1 0 .55-.474 1-1.075 1C9.486 13 9 12.55 9 12s.475-1 1.076-1zm3.848 0c.601 0 1.076.45 1.076 1s-.475 1-1.076 1c-.59 0-1.075-.45-1.075-1s.474-1 1.075-1zm4.967-9C20.054 2 21 2.966 21 4.163V23l-2.211-1.995-1.245-1.176-1.317-1.25.546 1.943H5.109C3.946 20.522 3 19.556 3 18.359V4.163C3 2.966 3.946 2 5.109 2H18.89zm-3.97 13.713c2.273-.073 3.148-1.596 3.148-1.596 0-3.381-1.482-6.122-1.482-6.122-1.48-1.133-2.89-1.102-2.89-1.102l-.144.168c1.749.546 2.561 1.334 2.561 1.334a8.263 8.263 0 0 0-3.096-1.008 8.527 8.527 0 0 0-2.077.02c-.062 0-.114.011-.175.021-.36.032-1.235.168-2.335.662-.38.178-.607.305-.607.305s.854-.83 2.705-1.376l-.103-.126s-1.409-.031-2.89 1.103c0 0-1.481 2.74-1.481 6.121 0 0 .864 1.522 3.137 1.596 0 0 .38-.472.69-.871-1.307-.4-1.8-1.24-1.8-1.24s.102.074.287.179c.01.01.02.021.041.031.031.022.062.032.093.053.257.147.514.262.75.357.422.168.926.336 1.513.452a7.06 7.06 0 0 0 2.664.01 6.666 6.666 0 0 0 1.491-.451c.36-.137.761-.337 1.183-.62 0 0-.514.861-1.862 1.25.309.399.68.85.68.85z"/></symbol><symbol viewBox="0 0 24 24" id="facebook-fill"><path fill="none" d="M0 0h24v24H0z"/><path d="M14 13.5h2.5l1-4H14v-2c0-1.03 0-2 2-2h1.5V2.14c-.326-.043-1.557-.14-2.857-.14C11.928 2 10 3.657 10 6.7v2.8H7v4h3V22h4v-8.5z"/></symbol><symbol viewBox="0 0 24 24" id="github-line"><path fill="none" d="M0 0h24v24H0z"/><path d="M5.883 18.653c-.3-.2-.558-.455-.86-.816a50.32 50.32 0 0 1-.466-.579c-.463-.575-.755-.84-1.057-.949a1 1 0 0 1 .676-1.883c.752.27 1.261.735 1.947 1.588-.094-.117.34.427.433.539.19.227.33.365.44.438.204.137.587.196 1.15.14.023-.382.094-.753.202-1.095C5.38 15.31 3.7 13.396 3.7 9.64c0-1.24.37-2.356 1.058-3.292-.218-.894-.185-1.975.302-3.192a1 1 0 0 1 .63-.582c.081-.024.127-.035.208-.047.803-.123 1.937.17 3.415 1.096A11.731 11.731 0 0 1 12 3.315c.912 0 1.818.104 2.684.308 1.477-.933 2.613-1.226 3.422-1.096.085.013.157.03.218.05a1 1 0 0 1 .616.58c.487 1.216.52 2.297.302 3.19.691.936 1.058 2.045 1.058 3.293 0 3.757-1.674 5.665-4.642 6.392.125.415.19.879.19 1.38a300.492 300.492 0 0 1-.012 2.716 1 1 0 0 1-.019 1.958c-1.139.228-1.983-.532-1.983-1.525l.002-.446.005-.705c.005-.708.007-1.338.007-1.998 0-.697-.183-1.152-.425-1.36-.661-.57-.326-1.655.54-1.752 2.967-.333 4.337-1.482 4.337-4.66 0-.955-.312-1.744-.913-2.404a1 1 0 0 1-.19-1.045c.166-.414.237-.957.096-1.614l-.01.003c-.491.139-1.11.44-1.858.949a1 1 0 0 1-.833.135A9.626 9.626 0 0 0 12 5.315c-.89 0-1.772.119-2.592.35a1 1 0 0 1-.83-.134c-.752-.507-1.374-.807-1.868-.947-.144.653-.073 1.194.092 1.607a1 1 0 0 1-.189 1.045C6.016 7.89 5.7 8.694 5.7 9.64c0 3.172 1.371 4.328 4.322 4.66.865.097 1.201 1.177.544 1.748-.192.168-.429.732-.429 1.364v3.15c0 .986-.835 1.725-1.96 1.528a1 1 0 0 1-.04-1.962v-.99c-.91.061-1.662-.088-2.254-.485z"/></symbol><symbol viewBox="0 0 24 24" id="instagram-line"><path fill="none" d="M0 0h24v24H0z"/><path d="M12 9a3 3 0 1 0 0 6 3 3 0 0 0 0-6zm0-2a5 5 0 1 1 0 10 5 5 0 0 1 0-10zm6.5-.25a1.25 1.25 0 0 1-2.5 0 1.25 1.25 0 0 1 2.5 0zM12 4c-2.474 0-2.878.007-4.029.058-.784.037-1.31.142-1.798.332-.434.168-.747.369-1.08.703a2.89 2.89 0 0 0-.704 1.08c-.19.49-.295 1.015-.331 1.798C4.006 9.075 4 9.461 4 12c0 2.474.007 2.878.058 4.029.037.783.142 1.31.331 1.797.17.435.37.748.702 1.08.337.336.65.537 1.08.703.494.191 1.02.297 1.8.333C9.075 19.994 9.461 20 12 20c2.474 0 2.878-.007 4.029-.058.782-.037 1.309-.142 1.797-.331.433-.169.748-.37 1.08-.702.337-.337.538-.65.704-1.08.19-.493.296-1.02.332-1.8.052-1.104.058-1.49.058-4.029 0-2.474-.007-2.878-.058-4.029-.037-.782-.142-1.31-.332-1.798a2.911 2.911 0 0 0-.703-1.08 2.884 2.884 0 0 0-1.08-.704c-.49-.19-1.016-.295-1.798-.331C14.925 4.006 14.539 4 12 4zm0-2c2.717 0 3.056.01 4.122.06 1.065.05 1.79.217 2.428.465.66.254 1.216.598 1.772 1.153a4.908 4.908 0 0 1 1.153 1.772c.247.637.415 1.363.465 2.428.047 1.066.06 1.405.06 4.122 0 2.717-.01 3.056-.06 4.122-.05 1.065-.218 1.79-.465 2.428a4.883 4.883 0 0 1-1.153 1.772 4.915 4.915 0 0 1-1.772 1.153c-.637.247-1.363.415-2.428.465-1.066.047-1.405.06-4.122.06-2.717 0-3.056-.01-4.122-.06-1.065-.05-1.79-.218-2.428-.465a4.89 4.89 0 0 1-1.772-1.153 4.904 4.904 0 0 1-1.153-1.772c-.248-.637-.415-1.363-.465-2.428C2.013 15.056 2 14.717 2 12c0-2.717.01-3.056.06-4.122.05-1.066.217-1.79.465-2.428a4.88 4.88 0 0 1 1.153-1.772A4.897 4.897 0 0 1 5.45 2.525c.638-.248 1.362-.415 2.428-.465C8.944 2.013 9.283 2 12 2z"/></symbol><symbol viewBox="0 0 24 24" id="netflix-fill"><path fill="none" d="M0 0h24v24H0z"/><path d="M11.29 3.814l2.02 5.707.395 1.116.007-4.81.01-4.818h4.27L18 11.871c.003 5.98-.003 10.89-.015 10.9-.012.009-.209 0-.436-.027-.989-.118-2.29-.236-3.34-.282a14.57 14.57 0 0 1-.636-.038c-.003-.004-.273-.762-.776-2.184v-.004l-2.144-6.061-.34-.954-.008 4.586c-.006 4.365-.01 4.61-.057 4.61-.163 0-1.57.09-2.04.136-.308.027-.926.09-1.37.145-.446.051-.816.085-.823.078C6.006 22.77 6 17.867 6 11.883V1.002h.005V1h4.288l.028.08c.007.016.065.176.157.437l.641 1.778.173.496-.001.023z"/></symbol><symbol viewBox="0 0 24 24" id="qq-line"><path fill="none" d="M0 0h24v24H0z"/><path d="M17.535 12.514l-.696-1.796c0-.021.01-.375.01-.558C16.848 7.088 15.446 4 12 4c-3.446 0-4.848 3.088-4.848 6.16 0 .183.009.537.01.558l-.696 1.796c-.19.515-.38 1.05-.517 1.51-.657 2.189-.444 3.095-.282 3.115.348.043 1.354-1.648 1.354-1.648 0 .98.488 2.258 1.542 3.18-.394.127-.878.32-1.188.557-.28.214-.245.431-.194.52.22.385 3.79.245 4.82.125 1.03.12 4.599.26 4.82-.126.05-.088.085-.305-.194-.519-.311-.237-.795-.43-1.19-.556 1.055-.923 1.542-2.202 1.542-3.181 0 0 1.007 1.691 1.355 1.648.162-.02.378-.928-.283-3.116-.14-.463-.325-.994-.516-1.509zm1.021 8.227c-.373.652-.833.892-1.438 1.057-.24.065-.498.108-.794.138-.44.045-.986.065-1.613.064a33.23 33.23 0 0 1-2.71-.116c-.692.065-1.785.114-2.71.116a16.07 16.07 0 0 1-1.614-.064 4.928 4.928 0 0 1-.793-.138c-.605-.164-1.065-.405-1.44-1.059a2.274 2.274 0 0 1-.239-1.652c-.592-.132-1.001-.483-1.279-.911a2.43 2.43 0 0 1-.309-.71 4.028 4.028 0 0 1-.116-1.106c.013-.785.187-1.762.532-2.912.14-.466.327-1.008.568-1.655l.553-1.43a15.496 15.496 0 0 1-.002-.203C5.152 5.605 7.588 2 12 2c4.413 0 6.848 3.605 6.848 8.16l-.001.203.553 1.43.01.026c.225.606.413 1.153.556 1.626.348 1.15.522 2.129.535 2.916.007.407-.03.776-.118 1.108-.066.246-.161.48-.31.708-.276.427-.684.776-1.277.91.13.554.055 1.14-.24 1.654z"/></symbol><symbol viewBox="0 0 24 24" id="paypal-line"><path fill="none" d="M0 0h24v24H0z"/><path d="M8.495 20.667h1.551l.538-3.376a2.805 2.805 0 0 1 2.77-2.366h.5c2.677 0 4.06-.983 4.55-3.503.208-1.066.117-1.73-.171-2.102-1.207 3.054-3.79 4.16-6.962 4.16h-.884c-.384 0-.794.209-.852.58l-1.04 6.607zm-4.944-.294a.551.551 0 0 1-.544-.637L5.68 2.776A.92.92 0 0 1 6.59 2h6.424c2.212 0 3.942.467 4.899 1.558.87.99 1.123 2.084.871 3.692.36.191.668.425.916.706.818.933.978 2.26.668 3.85-.74 3.805-3.276 5.12-6.514 5.12h-.5a.805.805 0 0 0-.794.679l-.702 4.383a.804.804 0 0 1-.794.679H6.72a.483.483 0 0 1-.477-.558l.274-1.736H3.55zm6.836-8.894h.884c3.19 0 4.895-1.212 5.483-4.229.02-.101.037-.203.053-.309.166-1.06.05-1.553-.398-2.063-.465-.53-1.603-.878-3.396-.878h-5.5L5.246 18.373h1.561l.73-4.628.007.001a2.915 2.915 0 0 1 2.843-2.267z"/></symbol><symbol viewBox="0 0 24 24" id="steam-fill"><path fill="none" d="M0 0H24V24H0z"/><path d="M12.004 2c-5.25 0-9.556 4.05-9.964 9.197l5.36 2.216c.454-.31 1.002-.492 1.593-.492.053 0 .104.003.157.005l2.384-3.452v-.049c0-2.08 1.69-3.77 3.77-3.77 2.079 0 3.77 1.692 3.77 3.772s-1.692 3.771-3.77 3.771h-.087l-3.397 2.426c0 .043.003.088.003.133 0 1.562-1.262 2.83-2.825 2.83-1.362 0-2.513-.978-2.775-2.273l-3.838-1.589C3.573 18.922 7.427 22 12.005 22c5.522 0 9.998-4.477 9.998-10 0-5.522-4.477-10-9.999-10zM7.078 16.667c.218.452.595.832 1.094 1.041 1.081.45 2.328-.063 2.777-1.145.22-.525.22-1.1.004-1.625-.215-.525-.625-.934-1.147-1.152-.52-.217-1.075-.208-1.565-.025l1.269.525c.797.333 1.174 1.25.84 2.046-.33.797-1.247 1.175-2.044.843l-1.228-.508zm10.74-7.245c0-1.385-1.128-2.512-2.513-2.512-1.387 0-2.512 1.127-2.512 2.512 0 1.388 1.125 2.513 2.512 2.513 1.386 0 2.512-1.125 2.512-2.513zM15.31 7.53c1.04 0 1.888.845 1.888 1.888s-.847 1.888-1.888 1.888c-1.044 0-1.888-.845-1.888-1.888s.845-1.888 1.888-1.888z"/></symbol><symbol viewBox="0 0 24 24" id="spotify-fill"><path fill="none" d="M0 0h24v24H0z"/><path d="M12 2C6.5 2 2 6.5 2 12s4.5 10 10 10 10-4.5 10-10S17.55 2 12 2zm3.75 14.65c-2.35-1.45-5.3-1.75-8.8-.95-.35.1-.65-.15-.75-.45-.1-.35.15-.65.45-.75 3.8-.85 7.1-.5 9.7 1.1.35.15.4.55.25.85-.2.3-.55.4-.85.2zm1-2.7c-2.7-1.65-6.8-2.15-9.95-1.15-.4.1-.85-.1-.95-.5-.1-.4.1-.85.5-.95 3.65-1.1 8.15-.55 11.25 1.35.3.15.45.65.2 1s-.7.5-1.05.25zM6.3 9.75c-.5.15-1-.15-1.15-.6-.15-.5.15-1 .6-1.15 3.55-1.05 9.4-.85 13.1 1.35.45.25.6.85.35 1.3-.25.35-.85.5-1.3.25C14.7 9 9.35 8.8 6.3 9.75z"/></symbol><symbol viewBox="0 0 24 24" id="telegram-fill"><path fill="none" d="M0 0h24v24H0z"/><path d="M12 22C6.477 22 2 17.523 2 12S6.477 2 12 2s10 4.477 10 10-4.477 10-10 10zm-3.11-8.83l.013-.007.87 2.87c.112.311.266.367.453.341.188-.025.287-.126.41-.244l1.188-1.148 2.55 1.888c.466.257.801.124.917-.432l1.657-7.822c.183-.728-.137-1.02-.702-.788l-9.733 3.76c-.664.266-.66.638-.12.803l2.497.78z"/></symbol><symbol viewBox="0 0 24 24" id="tumblr-fill"><path fill="none" d="M0 0h24v24H0z"/><path d="M6.27 7.63A5.76 5.76 0 0 0 10.815 2h3.03v5.152h3.637v3.636h-3.636v5.454c0 .515.197 1.207.909 1.667.474.307 1.484.458 3.03.455V22h-4.242a4.545 4.545 0 0 1-4.546-4.545v-6.667H6.27V7.63z"/></symbol><symbol viewBox="0 0 24 24" id="twitch-fill"><path fill="none" d="M0 0h24v24H0z"/><path d="M21 3v11.74l-4.696 4.695h-3.913l-2.437 2.348H6.913v-2.348H3V6.13L4.227 3H21zm-1.565 1.565H6.13v11.74h3.13v2.347l2.349-2.348h4.695l3.13-3.13V4.565zm-3.13 3.13v4.696h-1.566V7.696h1.565zm-3.914 0v4.696h-1.565V7.696h1.565z"/></symbol><symbol viewBox="0 0 24 24" id="twitter-fill"><path fill="none" d="M0 0h24v24H0z"/><path d="M22.162 5.656a8.384 8.384 0 0 1-2.402.658A4.196 4.196 0 0 0 21.6 4c-.82.488-1.719.83-2.656 1.015a4.182 4.182 0 0 0-7.126 3.814 11.874 11.874 0 0 1-8.62-4.37 4.168 4.168 0 0 0-.566 2.103c0 1.45.738 2.731 1.86 3.481a4.168 4.168 0 0 1-1.894-.523v.052a4.185 4.185 0 0 0 3.355 4.101 4.21 4.21 0 0 1-1.89.072A4.185 4.185 0 0 0 7.97 16.65a8.394 8.394 0 0 1-6.191 1.732 11.83 11.83 0 0 0 6.41 1.88c7.693 0 11.9-6.373 11.9-11.9 0-.18-.005-.362-.013-.54a8.496 8.496 0 0 0 2.087-2.165z"/></symbol><symbol viewBox="0 0 24 24" id="youtube-fill"><path fill="none" d="M0 0h24v24H0z"/><path d="M21.543 6.498C22 8.28 22 12 22 12s0 3.72-.457 5.502c-.254.985-.997 1.76-1.938 2.022C17.896 20 12 20 12 20s-5.893 0-7.605-.476c-.945-.266-1.687-1.04-1.938-2.022C2 15.72 2 12 2 12s0-3.72.457-5.502c.254-.985.997-1.76 1.938-2.022C6.107 4 12 4 12 4s5.896 0 7.605.476c.945.266 1.687 1.04 1.938 2.022zM10 15.5l6-3.5-6-3.5v7z"/></symbol><symbol viewBox="0 0 24 24" id="zcool-line"><path fill="none" d="M0 0h24v24H0z"/><path d="M8.26 8.26C5.838 8.803 4 11.208 4 13.935a5.903 5.903 0 0 0 11.703 1.098 2 2 0 0 1 1.129-1.448c.482-.222.91-.473 1.284-.743-.863-.603-1.186-1.862-.47-2.834a9.796 9.796 0 0 0 1.391-2.651 19.04 19.04 0 0 1-3.668 1.265c-1.261.303-2.392-.638-2.466-1.814-1.18.572-2.67 1.01-4.642 1.452zm10.996 2.934c1.166 0 1.917-.424 2.744-.587-.325 1.448-1.5 3.49-4.33 4.795A7.903 7.903 0 0 1 2 13.936C2 10.29 4.467 7.06 7.824 6.308 11.745 5.43 13.528 4.742 14.9 2c.689 1.333.689 2.892 0 4.677 2.816-.67 5.074-1.852 6.774-3.548 0 4.802-1.822 7.186-2.419 8.065zm-5.84 3.932c.584.145.584.832.584 1.02v1.022c0 .561-.342.773-.844.773H7.742c-.475-.087-.734-.346-.734-.778v-.95c0-.475.216-.82.432-1.08l3.152-3.369H7.526c-.302 0-.518-.216-.518-.604-.044-.735.086-1.9.647-2.16.087 0 .087.13.087.173-.087.173 0 .302.216.302h3.887c.863 0 1.381 0 1.684-.086.13-.043.216 0 .173.13-.087.302-.044.647-.044.95 0 .993 0 1.382-.777 2.159l-2.678 2.937 2.85-.002c.316 0 .364-.146.364-.437z"/></symbol><symbol viewBox="0 0 24 24" id="sun-line"><path fill="none" d="M0 0h24v24H0z"/><path d="M12 18a6 6 0 1 1 0-12 6 6 0 0 1 0 12zm0-2a4 4 0 1 0 0-8 4 4 0 0 0 0 8zM11 1h2v3h-2V1zm0 19h2v3h-2v-3zM3.515 4.929l1.414-1.414L7.05 5.636 5.636 7.05 3.515 4.93zM16.95 18.364l1.414-1.414 2.121 2.121-1.414 1.414-2.121-2.121zm2.121-14.85l1.414 1.415-2.121 2.121-1.414-1.414 2.121-2.121zM5.636 16.95l1.414 1.414-2.121 2.121-1.414-1.414 2.121-2.121zM23 11v2h-3v-2h3zM4 11v2H1v-2h3z"/></symbol></svg>